<?xml version="1.0" encoding="UTF-8"?>
<svg xmlns="http://www.w3.org/2000/svg" width="175" height="40" viewBox="0 0 175 40" fill="none">
  <path d="M89.2114 19.8004C88.7163 19.0812 88.025 18.502 87.1749 18.0817C86.2501 17.624 85.3066 17.3905 84.3724 17.3905C83.1674 17.3905 82.0464 17.6147 81.0375 18.063C80.0379 18.5114 79.1598 19.1279 78.4405 19.9031C77.7212 20.6784 77.1513 21.5845 76.759 22.6026C76.3573 23.6114 76.1611 24.6949 76.1611 25.8158C76.1611 26.9367 76.3666 28.0389 76.759 29.0477C77.1607 30.0471 77.7212 30.9531 78.4405 31.7284C79.1598 32.5037 80.0286 33.1202 81.0375 33.5685C82.037 34.0169 83.158 34.2411 84.3724 34.2411C85.3066 34.2411 86.2501 34.0075 87.1749 33.5499C88.0343 33.1295 88.7163 32.5504 89.2114 31.8312V33.1015C89.2114 33.5032 89.5383 33.8301 89.94 33.8301H92.3221C92.7238 33.8301 93.0508 33.5032 93.0508 33.1015V18.5487C93.0508 18.1471 92.7238 17.8202 92.3221 17.8202H89.94C89.5383 17.8202 89.2114 18.1471 89.2114 18.5487V19.8191V19.8004ZM84.5686 30.785C83.8773 30.785 83.2421 30.6449 82.6909 30.3834C82.1304 30.1125 81.6447 29.7575 81.243 29.3092C80.8413 28.8608 80.533 28.3284 80.3182 27.7306C80.1033 27.1235 80.0005 26.479 80.0005 25.8064C80.0005 25.1339 80.1126 24.4894 80.3182 23.8823C80.533 23.2845 80.8413 22.752 81.243 22.3037C81.6447 21.8553 82.1304 21.4911 82.6909 21.2295C83.2514 20.9586 83.8773 20.8279 84.5686 20.8279C85.2599 20.8279 85.8951 20.968 86.4649 21.2295C87.0348 21.5004 87.5299 21.8553 87.9316 22.3037C88.3333 22.752 88.6509 23.2845 88.8751 23.8823C89.0993 24.4894 89.2114 25.1339 89.2114 25.8064C89.2114 26.479 89.0993 27.1235 88.8751 27.7306C88.6509 28.3378 88.3333 28.8702 87.9316 29.3092C87.5299 29.7575 87.0348 30.1218 86.4649 30.3834C85.8951 30.6542 85.2599 30.785 84.5686 30.785Z" fill="white"></path>
  <path d="M104.538 17.5865C104.015 17.5865 103.482 17.6613 102.968 17.8107C102.455 17.9602 101.969 18.1657 101.52 18.4272C101.072 18.6887 100.68 18.997 100.353 19.3239C100.082 19.5948 99.867 19.875 99.6895 20.1646V18.5206C99.6895 18.119 99.3626 17.792 98.9609 17.792H96.5787C96.1771 17.792 95.8501 18.119 95.8501 18.5206V33.0734C95.8501 33.475 96.1771 33.8019 96.5787 33.8019H98.9609C99.3626 33.8019 99.6895 33.475 99.6895 33.0734V26.8899C99.6895 24.919 100.11 23.4525 100.932 22.5558C101.754 21.6497 102.968 21.192 104.538 21.192C104.827 21.192 105.07 21.2014 105.266 21.2294C105.323 21.2294 105.388 21.2481 105.463 21.2574C105.78 21.3135 106.06 21.0706 106.06 20.753V18.2217C106.06 17.9882 105.902 17.7827 105.677 17.7267C105.341 17.6426 104.958 17.5959 104.538 17.5959V17.5865Z" fill="white"></path>
  <path d="M120.007 19.8004C119.512 19.0812 118.821 18.502 117.971 18.0817C117.046 17.624 116.102 17.3905 115.168 17.3905C113.963 17.3905 112.842 17.6147 111.833 18.063C110.834 18.5114 109.956 19.1279 109.236 19.9031C108.517 20.6784 107.947 21.5845 107.555 22.6026C107.153 23.6114 106.957 24.6949 106.957 25.8158C106.957 26.9367 107.163 28.0389 107.555 29.0477C107.957 30.0471 108.517 30.9531 109.236 31.7284C109.956 32.5037 110.824 33.1202 111.833 33.5685C112.833 34.0169 113.954 34.2411 115.168 34.2411C116.102 34.2411 117.046 34.0075 117.971 33.5499C118.83 33.1295 119.512 32.5504 120.007 31.8312V33.1015C120.007 33.5032 120.334 33.8301 120.736 33.8301H123.118C123.52 33.8301 123.847 33.5032 123.847 33.1015V18.5487C123.847 18.1471 123.52 17.8202 123.118 17.8202H120.736C120.334 17.8202 120.007 18.1471 120.007 18.5487V19.8191V19.8004ZM115.364 30.785C114.673 30.785 114.038 30.6449 113.487 30.3834C112.926 30.1125 112.441 29.7575 112.039 29.3092C111.637 28.8608 111.329 28.3284 111.114 27.7306C110.899 27.1235 110.796 26.479 110.796 25.8064C110.796 25.1339 110.909 24.4894 111.114 23.8823C111.329 23.2845 111.637 22.752 112.039 22.3037C112.441 21.8553 112.926 21.4911 113.487 21.2295C114.047 20.9586 114.673 20.8279 115.364 20.8279C116.056 20.8279 116.691 20.968 117.261 21.2295C117.831 21.5004 118.326 21.8553 118.727 22.3037C119.129 22.752 119.447 23.2845 119.671 23.8823C119.895 24.4894 120.007 25.1339 120.007 25.8064C120.007 26.479 119.895 27.1235 119.671 27.7306C119.447 28.3378 119.129 28.8702 118.727 29.3092C118.326 29.7575 117.831 30.1218 117.261 30.3834C116.691 30.6542 116.056 30.785 115.364 30.785Z" fill="white"></path>
  <path d="M154.514 19.8004C154.019 19.0812 153.328 18.502 152.478 18.0817C151.553 17.624 150.609 17.3905 149.675 17.3905C148.47 17.3905 147.349 17.6147 146.34 18.063C145.341 18.5114 144.463 19.1279 143.743 19.9031C143.024 20.6784 142.454 21.5845 142.062 22.6026C141.66 23.6114 141.464 24.6949 141.464 25.8158C141.464 26.9367 141.669 28.0389 142.062 29.0477C142.463 30.0471 143.024 30.9531 143.743 31.7284C144.463 32.5037 145.331 33.1202 146.34 33.5685C147.34 34.0169 148.461 34.2411 149.675 34.2411C150.609 34.2411 151.553 34.0075 152.478 33.5499C153.337 33.1295 154.019 32.5504 154.514 31.8312V33.1015C154.514 33.5032 154.841 33.8301 155.243 33.8301H157.625C158.027 33.8301 158.354 33.5032 158.354 33.1015V18.5487C158.354 18.1471 158.027 17.8202 157.625 17.8202H155.243C154.841 17.8202 154.514 18.1471 154.514 18.5487V19.8191V19.8004ZM149.871 30.785C149.18 30.785 148.545 30.6449 147.994 30.3834C147.433 30.1125 146.947 29.7575 146.546 29.3092C146.144 28.8608 145.836 28.3284 145.621 27.7306C145.406 27.1235 145.303 26.479 145.303 25.8064C145.303 25.1339 145.415 24.4894 145.621 23.8823C145.836 23.2845 146.144 22.752 146.546 22.3037C146.947 21.8553 147.433 21.4911 147.994 21.2295C148.554 20.9586 149.18 20.8279 149.871 20.8279C150.563 20.8279 151.198 20.968 151.768 21.2295C152.338 21.5004 152.833 21.8553 153.234 22.3037C153.636 22.752 153.954 23.2845 154.178 23.8823C154.402 24.4894 154.514 25.1339 154.514 25.8064C154.514 26.479 154.402 27.1235 154.178 27.7306C153.954 28.3378 153.636 28.8702 153.234 29.3092C152.833 29.7575 152.338 30.1218 151.768 30.3834C151.198 30.6542 150.563 30.785 149.871 30.785Z" fill="white"></path>
  <path d="M170.391 25.7317L174.782 18.9223C175.099 18.4366 174.744 17.7921 174.165 17.7921H171.475C171.213 17.7921 170.98 17.9322 170.849 18.1564L168.168 22.7146L165.487 18.1564C165.356 17.9322 165.113 17.7921 164.861 17.7921H162.171C161.591 17.7921 161.246 18.4366 161.554 18.9223L165.945 25.7317L161.451 32.6811C161.134 33.1669 161.489 33.8114 162.068 33.8114H164.758C165.02 33.8114 165.253 33.6712 165.384 33.4564L168.168 28.7581L170.952 33.4564C171.082 33.6806 171.325 33.8114 171.578 33.8114H174.268C174.847 33.8114 175.193 33.1669 174.885 32.6811L170.391 25.7317Z" fill="white"></path>
  <path d="M61.0406 31.8031C61.5357 32.5223 62.227 33.1014 63.0771 33.5218C64.0019 33.9795 64.9454 34.213 65.8795 34.213C67.0846 34.213 68.2056 33.9888 69.2145 33.5405C70.2141 33.0921 71.0922 32.4756 71.8115 31.7003C72.5308 30.9251 73.0913 30.0284 73.493 29.0196C73.8947 28.0201 74.0908 26.9273 74.0908 25.7877C74.0908 24.6481 73.8853 23.5926 73.493 22.5745C73.0913 21.5564 72.5308 20.6503 71.8115 19.8751C71.0922 19.0998 70.2234 18.4833 69.2145 18.035C68.2149 17.5866 67.094 17.3624 65.8795 17.3624C64.9454 17.3624 64.0019 17.5959 63.0771 18.0536C62.2176 18.474 61.5357 19.0531 61.0406 19.7723V18.502C61.0406 18.1003 60.7136 17.7734 60.3119 17.7734H57.9298C57.5281 17.7734 57.2012 18.1003 57.2012 18.502V38.5284C57.2012 38.9207 57.5188 39.2476 57.9205 39.2476H60.3213C60.7136 39.2476 61.0406 38.93 61.0406 38.5284V31.7844V31.8031ZM61.3582 23.8729C61.573 23.2751 61.8813 22.7426 62.283 22.2943C62.6847 21.8459 63.1798 21.4817 63.7497 21.2201C64.3195 20.9492 64.9734 20.8185 65.6834 20.8185C66.3933 20.8185 67.0099 20.9586 67.561 21.2201C68.1215 21.491 68.6073 21.8459 69.009 22.2943C69.4107 22.7426 69.7189 23.2751 69.9338 23.8729C70.1487 24.48 70.2514 25.1245 70.2514 25.797C70.2514 26.4696 70.1393 27.1141 69.9338 27.7212C69.7189 28.3284 69.4107 28.8608 69.009 29.2998C68.6073 29.7481 68.1215 30.1124 67.561 30.374C67.0005 30.6449 66.3746 30.7756 65.6834 30.7756C64.9921 30.7756 64.3195 30.6355 63.7497 30.374C63.1798 30.1031 62.6847 29.7481 62.283 29.2998C61.8813 28.8514 61.573 28.319 61.3582 27.7212C61.1433 27.1141 61.0406 26.4696 61.0406 25.797C61.0406 25.1245 61.1527 24.48 61.3582 23.8729Z" fill="white"></path>
  <path d="M128.052 12.337H130.435C130.836 12.337 131.163 12.664 131.163 13.0656V33.0733C131.163 33.475 130.836 33.8112 130.425 33.8112H128.052C127.651 33.8112 127.314 33.4843 127.314 33.0733V13.0656C127.314 12.664 127.641 12.337 128.043 12.337H128.052Z" fill="white"></path>
  <path d="M135.377 6.87292H137.759C138.161 6.87292 138.488 7.19985 138.488 7.6015V33.0735C138.488 33.4751 138.161 33.8114 137.75 33.8114H135.377C134.975 33.8114 134.639 33.4845 134.639 33.0735V7.6015C134.639 7.19985 134.966 6.87292 135.368 6.87292H135.377Z" fill="white"></path>
  <path d="M34.7397 34.4171C34.7397 35.0667 35.5553 35.3251 36.135 34.9984L42.2975 31.5106C42.9829 31.127 43.3439 30.5451 43.3439 29.774V4.65442L34.7397 9.53736V34.4171Z" fill="white"></path>
  <path d="M33.8089 0.236432L27.4138 3.84049C26.8393 4.16757 26.8393 5.14106 27.4139 5.46814L34.739 9.53726L43.3432 4.65433L35.7855 0.352755C35.1061 -0.0313681 34.4921 -0.147692 33.8089 0.236432Z" fill="white"></path>
  <path d="M21.248 34.4171C21.248 35.0667 22.0636 35.3251 22.6433 34.9984L28.8058 31.5106C29.4912 31.1269 29.8522 30.5451 29.8522 29.774V12.7965L21.248 17.6795V34.4171Z" fill="white"></path>
  <path d="M20.3172 8.37828L13.9221 11.9823C13.3476 12.3094 13.3476 13.2829 13.9222 13.61L21.2473 17.6791L29.8515 12.7962L22.2938 8.4946C21.6144 8.11048 21.0004 7.99415 20.3172 8.37828Z" fill="white"></path>
  <path d="M7.75635 33.9375C7.75635 34.5871 8.5719 34.8455 9.15162 34.5188L15.3141 31.031C15.9995 30.6474 16.3605 30.0655 16.3605 29.2944V20.804L7.75635 25.6869V33.9375Z" fill="white"></path>
  <path d="M6.82594 16.3861L0.430929 19.9902C-0.143654 20.3172 -0.143638 21.2907 0.430945 21.6178L7.75612 25.6869L16.3603 20.804L8.80259 16.5024C8.12319 16.1183 7.50923 16.002 6.82594 16.3861Z" fill="white"></path>
</svg>
